PathFileType	4	(X/Y/Z)	D:\TRACE\spotREDO_2-26-24\spot_Both_Motion_1_4-v60.trc
DataRate	CameraRate	NumFrames	NumMarkers	Units	OrigDataRate	OrigDataStartFrame	OrigNumFrames
100.00	100.00	      34	9	mm	100.00	3501	      7000
Frame#	Time	front left toe			Front right toe			aft left toe			aft right toe			Arm			FL body			FR body			AL Body			AR Body			
		X1	Y1	Z1	X2	Y2	Z2	X3	Y3	Z3	X4	Y4	Z4	X5	Y5	Z5	X6	Y6	Z6	X7	Y7	Z7	X8	Y8	Z8	X9	Y9	Z9	

3501	35.000	-296.66763	1.29993	-465.63763	91.71447	12.93979	-328.06387	-438.23596	18.28605	102.85313	3.38255	30.91509	155.00804	-137.11276	715.52832	-757.84570	-228.37709	594.47302	-510.04935	-74.68288	598.12726	-484.20468	-381.21179	564.64673	360.62961	-241.64850	568.36090	385.83960	
3502	35.010	-296.52145	0.79946	-465.47665	92.38439	12.94718	-328.08621	-436.97031	18.53620	103.00771	4.16058	30.96529	154.69786	-137.58704	713.68384	-758.49829	-228.36674	592.61377	-509.81119	-74.65598	596.67694	-484.51669	-379.08939	565.85889	361.62396	-239.52342	569.12573	386.15973	
3503	35.020	-295.89825	0.11943	-465.10480	93.56520	13.11972	-328.27203	-436.27985	18.75636	103.10378	5.32631	30.92834	154.50877	-137.36476	712.75189	-759.39355	-228.81483	591.03973	-509.49051	-75.09926	595.09869	-484.73642	-376.79456	566.22052	362.26993	-237.17039	569.65631	386.45856	
3504	35.030	-295.57639	-0.40403	-464.88937	93.57898	12.85215	-328.82266	-434.95389	19.10198	103.07598	6.61639	30.81453	154.03069	-136.21858	712.42151	-759.65295	-229.23116	589.45178	-509.34348	-75.32388	593.54181	-484.94891	-374.36252	566.27148	362.79367	-234.82536	570.16034	386.69498	
3505	35.040	-294.80655	-1.00636	-464.81198	94.66864	13.33455	-329.15829	-434.06393	19.20304	103.04887	8.16044	30.76348	153.77554	-134.32292	712.70929	-759.71082	-229.50644	587.90918	-509.12054	-75.71957	592.14008	-485.25592	-372.36142	566.82678	364.10867	-232.40321	570.44019	387.08783	
3506	35.050	-294.40393	-1.25632	-464.78064	95.46163	13.27520	-329.43369	-433.17688	19.50383	103.27406	9.08118	30.68738	153.37732	-132.34395	713.36664	-759.84265	-229.67923	586.43207	-508.85223	-75.78717	590.73920	-485.23593	-370.30582	567.05444	364.77451	-231.14517	570.72888	387.48471	
3507	35.060	-293.83835	-1.40751	-464.59589	96.42545	12.83018	-329.51312	-432.02386	19.46179	103.26102	10.38287	30.81662	153.23360	-129.92471	714.24445	-759.33038	-229.38646	585.44666	-508.26184	-75.78222	589.48315	-485.03867	-368.59177	566.73804	364.85947	-228.54292	570.64453	388.17148	
3508	35.070	-292.29617	-1.85750	-464.66364	97.15781	12.78565	-329.27841	-431.33502	19.71848	103.28524	11.28740	30.69960	153.03777	-127.98692	715.14856	-759.21454	-228.61230	584.33594	-507.81393	-74.66788	588.66425	-484.60892	-367.39209	566.65833	365.36453	-227.30988	570.51971	388.59372	
3509	35.080	-291.66733	-1.49505	-464.75232	97.21006	11.90059	-329.36240	-430.62009	19.43952	103.20887	11.86094	30.75943	153.21939	-126.41115	716.00146	-758.87097	-227.30984	583.73755	-507.25330	-73.49039	587.66248	-483.92587	-366.36218	566.51489	366.09970	-226.73012	570.37976	389.11591	
3510	35.090	-290.54599	-1.86854	-464.79797	98.12067	11.55250	-329.13873	-429.99081	19.30603	103.07169	12.89605	30.84253	153.42052	-124.90777	716.83752	-758.29858	-225.90709	583.56476	-506.91437	-71.54255	587.05194	-483.12393	-366.02039	566.36462	366.43097	-226.25708	570.04944	389.90060	
3511	35.100	-289.30612	-1.77548	-464.92169	99.42905	11.25494	-328.99118	-429.28076	19.15048	102.89265	13.31280	30.95044	153.39810	-124.01427	717.18011	-757.62073	-223.56891	582.82465	-505.92218	-69.69689	586.42047	-482.11801	-365.90744	566.51617	367.17688	-226.11496	569.79724	390.22589	
3512	35.110	-288.26016	-1.42156	-465.19366	100.31522	10.96774	-328.75510	-428.48795	19.15961	102.60210	13.79980	31.18064	153.57536	-123.49886	717.75641	-756.93176	-221.22208	582.69214	-505.18637	-67.58112	585.94836	-481.06281	-365.77847	566.49121	367.56775	-225.92195	569.34442	390.97638	
3513	35.120	-287.18991	-1.58169	-465.10040	101.44823	10.64837	-328.49329	-427.80301	19.01538	102.51254	14.06542	31.32883	153.69070	-123.63512	717.98145	-756.45703	-218.86469	582.40625	-504.24384	-65.04589	585.56451	-479.81976	-365.68033	566.35675	367.88730	-225.88263	568.98621	391.92648	
3514	35.130	-285.93146	-1.70689	-465.25729	102.56064	10.21942	-328.31070	-427.36914	19.12355	102.24327	14.79236	31.62094	153.87691	-123.74620	717.89697	-756.18243	-216.54382	582.51343	-503.54224	-62.82559	585.33020	-478.62970	-365.33307	566.18176	368.45956	-225.50558	568.78528	392.72885	
3515	35.140	-285.02899	-1.56333	-465.36603	103.43578	10.19082	-328.03522	-426.44980	19.08740	101.91110	15.87059	31.60369	153.94345	-124.23186	717.87671	-756.13220	-214.53752	582.13519	-502.40643	-60.57427	584.91882	-477.18500	-364.38995	565.75653	368.93527	-224.82565	568.74591	393.61243	
3516	35.150	-283.96677	-1.78830	-465.45193	104.36380	9.92385	-328.08755	-425.33157	19.05001	102.18903	16.46257	31.66758	153.98915	-124.81532	717.59076	-755.68073	-212.68683	581.96643	-501.63370	-58.83291	584.63574	-476.20407	-363.43973	565.74585	369.49304	-223.82870	568.38452	394.93777	
3517	35.160	-283.09042	-2.02132	-465.48489	105.53966	10.03727	-328.08981	-424.40152	19.13354	102.32715	17.67977	31.62196	154.01358	-125.25276	717.30670	-755.50989	-211.06157	581.70764	-500.69687	-57.27133	584.19147	-475.16089	-362.25443	565.63000	370.64267	-222.74173	568.43890	395.65170	
3518	35.170	-282.23071	-2.36601	-465.39774	106.22971	9.70650	-328.17657	-423.17062	19.23513	102.40237	18.48091	31.57212	154.03790	-125.35045	716.96191	-755.35565	-209.63216	581.31830	-499.29907	-55.78297	583.80823	-474.12103	-360.60785	565.84808	371.92932	-221.11208	568.42926	396.79324	
3519	35.180	-281.41727	-2.66315	-465.28442	107.15917	9.61917	-328.13098	-422.30807	19.54351	102.34429	19.76573	31.82094	154.00345	-125.60152	716.68597	-755.23700	-208.71609	580.89618	-497.97314	-54.69556	583.18298	-472.94241	-358.47061	565.92596	373.26389	-219.17892	568.56622	397.95129	
3520	35.190	-280.60785	-2.90747	-465.03519	109.35664	10.58306	-327.90561	-421.26089	19.94933	101.89489	20.67377	31.61736	153.78670	-125.33586	716.16962	-755.18475	-207.48271	580.39117	-496.82623	-53.54533	582.68274	-471.96222	-356.33740	566.02954	374.66562	-216.96339	568.67816	399.35745	
3521	35.200	-279.90613	-2.94828	-465.02240	108.79590	9.38825	-328.30139	-420.38751	20.14643	102.35840	21.97837	31.57330	154.12238	-124.49667	715.94775	-755.24512	-206.72784	579.86554	-495.73434	-52.83926	582.25879	-470.97488	-354.04507	566.63458	376.51349	-214.54878	568.77765	400.53644	
3522	35.210	-279.06506	-3.19424	-465.13147	109.67289	9.51230	-328.40149	-418.99591	20.19267	102.50116	23.00435	31.42876	153.77252	-123.69376	715.72314	-755.27686	-205.59782	579.32312	-494.12222	-51.97860	581.62231	-469.77289	-351.77954	566.45123	377.76321	-212.25409	568.84576	402.05542	
3523	35.220	-277.95261	-3.62446	-464.98178	110.54003	9.20820	-328.57410	-418.04794	20.39002	102.66527	24.12879	31.31907	153.86594	-122.75775	715.64392	-755.43353	-204.67296	578.76715	-492.67554	-50.80088	581.14386	-468.51181	-349.29935	566.86218	379.83795	-209.87648	568.94366	403.48505	
3524	35.230	-277.27130	-3.82014	-464.74414	111.74772	9.16559	-328.48953	-416.93961	20.38683	102.68465	26.28185	31.83395	154.13293	-121.88800	715.52185	-755.35406	-203.39880	578.08185	-491.34628	-49.43483	580.43152	-467.14972	-347.39758	566.80206	381.50198	-207.68756	569.00916	405.13922	
3525	35.240	-276.49200	-4.02738	-464.85696	112.35462	8.95396	-328.50473	-416.09512	20.75309	102.37475	26.26834	31.61703	153.87813	-120.96371	715.34308	-755.56006	-201.99741	577.54895	-489.84665	-47.85048	579.92346	-465.66266	-345.52649	567.27124	383.29861	-205.47017	568.99091	406.43762	
3526	35.250	-275.29468	-4.03348	-464.96060	113.44999	8.89967	-328.46341	-415.13739	20.75768	102.26176	27.20871	31.60514	153.90747	-119.80575	715.12244	-755.51465	-200.37141	577.14923	-488.08777	-46.41230	579.34442	-464.23428	-343.30975	566.82794	384.50943	-203.40300	568.95972	408.28613	
3527	35.260	-274.37204	-4.31513	-464.94720	114.41250	8.90030	-328.50604	-414.38431	20.79134	102.57589	28.18797	31.84235	153.78209	-119.05725	714.92139	-755.66174	-198.48753	576.69409	-486.31375	-44.56716	578.69476	-462.45013	-341.28970	566.85297	386.41797	-201.55882	568.96771	410.11237	
3528	35.270	-273.40060	-4.58985	-464.70297	115.59390	8.68229	-328.31924	-413.49182	20.81230	102.60925	28.87564	31.97048	153.84947	-118.23394	714.77728	-755.60034	-196.45967	576.43884	-484.52557	-42.66915	578.33905	-460.70929	-339.32120	566.87531	388.31635	-199.60535	568.87915	411.82617	
3529	35.280	-272.65604	-5.08636	-464.71371	116.33363	8.26661	-328.20044	-412.51511	20.61260	102.43742	29.83317	32.13409	154.10974	-117.62446	714.68054	-755.86237	-194.21384	575.97437	-482.40298	-40.18797	577.70612	-458.49936	-337.49823	567.02374	390.36246	-197.59505	568.66553	413.72992	
3530	35.290	-272.12854	-5.71178	-465.61908	117.99507	8.02686	-327.64383	-411.86969	21.05981	102.79635	31.34342	31.93635	154.61757	-116.97042	714.44366	-755.68451	-191.89470	575.56323	-480.06363	-38.06385	577.05804	-456.24573	-335.31573	566.69940	392.68536	-195.54417	568.41901	416.14243	
3531	35.300	-276.14896	-0.14364	-462.91870	118.91235	6.79538	-327.73416	-409.98846	21.17703	102.31497	32.92148	30.42420	154.94023	-116.50681	714.32019	-755.77893	-189.59048	575.58655	-478.36292	-35.34954	577.06805	-453.87720	-333.46127	566.67657	394.70667	-193.87085	568.15375	418.32767	
3532	35.310	-272.74573	8.63368	-457.33316	121.33230	6.22962	-326.45190	-407.93896	21.96185	102.72861	34.19215	30.22198	155.51151	-115.84262	714.53925	-756.12830	-186.39867	574.03912	-475.79321	-32.31535	577.05463	-451.52060	-332.73956	566.47430	396.20737	-192.44154	568.85236	420.39432	
3533	35.320	-271.74188	20.15034	-455.17661	122.22565	5.82763	-326.81793	-407.15933	21.79094	102.92169	35.44776	30.92261	154.58531	-114.91380	714.75848	-756.23950	-183.45255	573.27509	-473.98349	-29.46404	576.81598	-449.38959	-330.73901	566.23920	397.85730	-191.36023	569.90436	422.03177	
3534	35.330	-277.12955	33.30190	-458.13452	123.49802	6.23255	-326.37064	-406.06760	21.78491	102.91741	36.23068	30.84988	155.68816	-114.29476	714.94202	-755.87561	-181.08836	572.72333	-472.08228	-27.34317	576.90808	-447.51309	-329.03204	566.00708	399.68893	-189.81850	570.21735	423.88815	
